<svg width="208" height="61" viewBox="0 0 208 61" fill="none" xmlns="http://www.w3.org/2000/svg">
<path d="M6 14L103.432 56L202 14" stroke="white" stroke-width="10" stroke-miterlimit="1.41421" stroke-linecap="round" stroke-linejoin="bevel"/>
<path d="M63.7852 17.2188C63.7852 18.8828 64.4023 20.1484 65.6367 21.0156C66.8711 21.8828 68.4609 22.3164 70.4062 22.3164C72.3672 22.3164 73.9414 21.8672 75.1289 20.9688C76.3242 20.0703 76.9219 18.8125 76.9219 17.1953C76.9141 15.6719 76.4492 14.4961 75.5273 13.668C74.6055 12.832 73.2734 12.1719 71.5312 11.6875C69.9531 11.2578 68.9258 10.8906 68.4492 10.5859C67.9805 10.2734 67.7461 9.83594 67.7461 9.27344C67.7461 8.69531 67.9531 8.23438 68.3672 7.89062C68.7812 7.54688 69.4297 7.375 70.3125 7.375C71.1797 7.375 71.8359 7.58984 72.2812 8.01953C72.7266 8.44141 72.9492 9.00781 72.9492 9.71875V10.0117H76.5703V9.61328C76.5703 8.08203 75.9961 6.86719 74.8477 5.96875C73.6992 5.07031 72.1758 4.62109 70.2773 4.62109C68.3789 4.62109 66.8633 5.07031 65.7305 5.96875C64.5977 6.85938 64.0312 8.05859 64.0312 9.56641C64.0391 10.9492 64.4922 12.0469 65.3906 12.8594C66.2969 13.6719 67.6406 14.3242 69.4219 14.8164C70.9922 15.2383 72.0156 15.6289 72.4922 15.9883C72.9766 16.3477 73.2188 16.8477 73.2188 17.4883C73.2188 18.1289 72.9727 18.6406 72.4805 19.0234C71.9961 19.4062 71.3008 19.5977 70.3945 19.5977C69.4727 19.5977 68.7539 19.3906 68.2383 18.9766C67.7227 18.5625 67.4688 17.9414 67.4766 17.1133V16.7734H63.7852V17.2188ZM80.2594 7.79688H85.193V22H88.9312V7.79688H93.8648V4.9375H80.2594V7.79688ZM95.2102 22H98.7141L102.804 10.0586C102.898 9.78516 102.972 9.52734 103.027 9.28516C103.089 9.04297 103.14 8.80859 103.179 8.58203H103.273C103.32 8.80859 103.37 9.04297 103.425 9.28516C103.48 9.52734 103.554 9.78516 103.648 10.0586L107.784 22H111.698L105.417 4.87891H101.433L95.2102 22ZM98.7492 18.3203H107.913L107.128 15.6484H99.5227L98.7492 18.3203ZM115.446 22H119.173V15.8242H121.809C123.7 15.8242 125.192 15.332 126.286 14.3477C127.38 13.3633 127.927 12.0195 127.927 10.3164C127.927 8.63672 127.388 7.32031 126.309 6.36719C125.231 5.41406 123.739 4.9375 121.833 4.9375H115.446V22ZM119.173 13.1758V7.67969H121.516C122.501 7.67969 123.192 7.92578 123.591 8.41797C123.997 8.90234 124.2 9.5625 124.2 10.3984C124.2 11.2422 123.997 11.918 123.591 12.4258C123.192 12.9258 122.501 13.1758 121.516 13.1758H119.173ZM124.587 22H128.712L124.528 13.8555L120.766 14.2305L124.587 22ZM130.584 7.79688H135.518V22H139.256V7.79688H144.19V4.9375H130.584V7.79688Z" fill="white"/>
</svg>
